<?xml version="1.0" standalone="no"?>
<!DOCTYPE svg PUBLIC "-//W3C//DTD SVG 20010904//EN"
 "http://www.w3.org/TR/2001/REC-SVG-20010904/DTD/svg10.dtd">
<svg version="1.0" xmlns="http://www.w3.org/2000/svg"
 width="512.000000pt" height="512.000000pt" viewBox="0 0 512.000000 512.000000"
 preserveAspectRatio="xMidYMid meet">
<metadata>
Created by potrace 1.11, written by Peter Selinger 2001-2013
</metadata>
<g transform="translate(0.000000,512.000000) scale(0.100000,-0.100000)"
fill="#000000" stroke="none">
<path d="M377 5105 c-173 -47 -316 -193 -362 -366 -22 -81 -22 -4277 0 -4358
46 -176 190 -320 366 -366 81 -22 4277 -22 4358 0 176 46 320 190 366 366 22
81 22 4277 0 4358 -46 176 -190 320 -366 366 -77 21 -4287 21 -4362 0z m623
-1720 l0 -65 -64 0 c-105 0 -146 -24 -146 -85 0 -14 58 -240 129 -503 71 -262
151 -557 177 -654 26 -98 50 -178 54 -178 3 0 93 344 200 765 l195 765 125 0
125 0 204 -752 c112 -414 207 -762 211 -773 7 -20 7 -20 13 0 26 80 349 1298
353 1330 9 62 -15 78 -126 83 l-90 4 0 64 0 64 310 0 310 0 0 -65 0 -65 -57 0
c-79 0 -122 -23 -150 -80 -21 -43 -61 -179 -308 -1050 -58 -206 -115 -406
-126 -443 l-20 -68 -121 3 -121 3 -192 740 c-239 918 -216 835 -225 810 -4
-11 -97 -365 -206 -787 l-199 -768 -125 0 -126 0 -218 758 c-120 416 -225 774
-234 795 -8 20 -28 48 -44 62 -25 21 -40 25 -94 25 l-64 0 0 65 0 65 325 0
325 0 0 -65z m3090 41 c47 -9 120 -33 163 -53 141 -66 211 -171 224 -333 16
-216 -105 -380 -327 -444 l-56 -16 72 -73 c93 -95 131 -174 184 -385 46 -184
69 -241 112 -277 43 -37 109 -35 148 3 16 16 32 45 35 65 5 26 13 37 25 37 9
0 39 3 65 7 l48 6 -7 -44 c-18 -113 -67 -188 -149 -228 -97 -47 -236 -36 -320
25 -85 62 -134 159 -207 413 -41 144 -72 217 -137 322 -33 54 -37 57 -90 68
-31 6 -123 11 -205 11 l-148 0 0 -329 c0 -402 -10 -374 139 -379 l101 -4 0
-63 0 -63 -365 2 -365 1 0 63 0 62 68 0 c90 1 153 14 169 36 10 14 13 157 13
718 0 386 -4 706 -8 713 -14 22 -63 33 -153 33 l-89 0 0 66 0 66 488 -5 c398
-4 503 -8 572 -21z"/>
<path d="M3520 2985 l0 -327 238 4 c197 4 245 8 287 23 84 30 130 69 162 132
25 53 28 68 28 163 0 118 -17 171 -73 226 -73 74 -160 94 -429 101 l-213 6 0
-328z"/>
</g>
</svg>
